<svg preserveAspectRatio="none" width="100%" height="100%" overflow="visible" style="display: block;" viewBox="0 0 50 50" fill="none" xmlns="http://www.w3.org/2000/svg">
<g id="Group">
<path id="Vector" d="M23.5009 0.0313608C42.7735 -0.919353 55.8625 19.9351 46.2537 36.8278C37.2346 52.6831 14.7839 53.7499 4.38488 38.7054C-6.61828 22.7881 4.31811 0.9781 23.5009 0.0313608ZM17.7012 8.84613C13.202 9.00353 9.37851 12.4121 8.82923 16.893C8.86023 21.7801 8.48503 26.769 8.73623 31.6561C8.97629 36.3175 12.3149 40.389 17.1225 40.7443C22.0216 41.1068 27.3515 40.4765 32.295 40.7443C36.7338 40.3429 40.2576 36.7952 40.6774 32.3668C40.4095 27.4518 41.039 22.1514 40.6774 17.2809C40.3149 12.3986 36.2537 9.05678 31.5049 8.8199C26.9778 8.59335 22.2473 8.9765 17.7004 8.84613H17.7012Z" fill="var(--fill-0, #F8F8F2)"/>
<path id="Vector_2" d="M16.9864 11.8638L32.4459 11.8503C35.333 12.2692 37.5588 14.6126 37.8171 17.5196C37.5397 22.3161 38.1923 27.5403 37.8171 32.2875C37.5786 35.3058 35.0707 37.7565 32.0611 37.9695C27.2686 37.6738 22.0206 38.3535 17.2814 37.9647C14 37.6961 11.8004 34.987 11.6001 31.8113C11.2997 27.0554 11.752 21.9123 11.6884 17.1309C12.0834 14.4099 14.2567 12.2311 16.9857 11.8646L16.9864 11.8638ZM32.9514 14.4012C30.6708 14.7597 31.0413 18.4171 33.4793 18.185C35.9856 17.9465 35.6454 13.9775 32.9514 14.4012ZM24.2957 16.6285C17.6399 17.0164 14.1526 24.6086 18.1613 29.9393C21.7527 34.7159 29.3664 34.014 32.0842 28.7008C34.9761 23.0466 30.647 16.2589 24.2957 16.6285Z" fill="var(--fill-0, #F8F8F2)"/>
<path id="Vector_3" d="M24.2959 19.4872C28.0718 19.1701 30.9366 22.7654 29.9303 26.3894C28.7999 30.461 23.4502 31.6581 20.66 28.4745C17.7149 25.1152 19.881 19.8584 24.2967 19.488L24.2959 19.4872Z" fill="var(--fill-0, #F8F8F2)"/>
</g>
</svg>
