<svg preserveAspectRatio="none" width="100%" height="100%" overflow="visible" style="display: block;" viewBox="0 0 50 50" fill="none" xmlns="http://www.w3.org/2000/svg">
<g id="linkedin">
<path id="Vector" d="M22.6584 0.0591673C44.8133 -1.39155 57.8841 24.1601 43.2664 40.9637C31.4254 54.5758 9.43978 51.0909 2.11308 34.7292C-4.74542 19.4121 5.87619 1.15853 22.6584 0.0591673ZM13.0121 9.95502C8.59479 10.4669 9.14805 17.3692 13.9859 16.8C18.2204 16.3016 17.5948 9.42402 13.0121 9.95502ZM39.3658 39.4534V25.8246C39.3658 25.2157 38.5407 23.3715 38.206 22.7913C36.4874 19.8048 32.5574 18.8612 29.3889 19.8731C27.8213 20.3739 26.5169 21.3787 25.4437 22.5957V19.8278H19.9088V39.4534H25.78V28.3405C25.78 27.8588 26.3849 26.6386 26.7045 26.2459C28.1997 24.4049 31.7823 24.4351 33.0089 26.5639C33.1528 26.8127 33.4962 27.6744 33.4962 27.9216V39.4534H39.3674H39.3658ZM16.47 39.4534V19.9542C16.47 19.9455 16.3531 19.8286 16.3444 19.8286H10.4318V39.4542H16.4708L16.47 39.4534Z" fill="var(--fill-0, #F8F8F2)"/>
</g>
</svg>
