<svg width="40" height="35" viewBox="0 0 40 35" fill="none" xmlns="http://www.w3.org/2000/svg">
<path d="M38.0928 0V1.6282L39.0331 0H38.0928Z" fill="#F8F8F2"/>
<path d="M37.1143 3.33213L38.0546 1.69762V0H37.1143V3.33213Z" fill="#F8F8F2"/>
<path d="M36.1294 5.02975L37.0445 3.43942V0H36.1294V5.02975Z" fill="#F8F8F2"/>
<path d="M35.1519 6.73368L36.0417 5.18752V0H35.1519V6.73368Z" fill="#F8F8F2"/>
<path d="M34.167 8.4313L35.0316 6.92932V0H34.167V8.4313Z" fill="#F8F8F2"/>
<path d="M33.189 10.1289L34.0283 8.67111V0H33.189V10.1289Z" fill="#F8F8F2"/>
<path d="M32.2041 11.8329C32.4187 11.4542 32.8099 10.7853 33.0182 10.4192V0H32.2041V11.8329Z" fill="#F8F8F2"/>
<path d="M31.2266 13.5305C31.4348 13.1644 31.8135 12.5207 32.0154 12.161V0H31.2266V13.5305Z" fill="#F8F8F2"/>
<path d="M30.2417 15.2281C30.4436 14.8747 30.8034 14.2499 31.0053 13.9028V0H30.2417V15.2281Z" fill="#F8F8F2"/>
<path d="M29.2632 16.932C29.4588 16.5975 29.8122 15.9854 30.0016 15.6509V0H29.2632V16.932Z" fill="#F8F8F2"/>
<path d="M28.2788 18.6296C28.4618 18.3141 28.8152 17.7083 28.9919 17.3927V0H28.2788V18.6296Z" fill="#F8F8F2"/>
<path d="M27.9891 0H27.2949V20.3273C27.4716 20.0243 27.8187 19.4185 27.9954 19.1156V9.83862H27.9891V0Z" fill="#F8F8F2"/>
<path d="M26.979 0H26.3164V20.1001H26.5878V21.5579L27.0295 20.7943V9.83862H26.979V0Z" fill="#F8F8F2"/>
<path d="M25.9757 0H25.332V20.1001H25.5845V23.2997L26.0452 22.4919V9.83862H25.9757V0Z" fill="#F8F8F2"/>
<path d="M24.9657 0H24.3535V20.1001H24.5744V25.0415L25.0666 24.1958V9.83862H24.9657V0Z" fill="#F8F8F2"/>
<path d="M23.9624 0H23.3691V20.1001H23.5711V26.7833L24.0823 25.8934V9.83862H23.9624V0Z" fill="#F8F8F2"/>
<path d="M22.9528 0H22.3911V20.1001H22.5615V28.5314L23.1042 27.5911V9.83862H22.9528V0Z" fill="#F8F8F2"/>
<path d="M14.54 12.344H15.2405V9.83862H15.0512V2.3855H14.8998V0H14.54V2.3855V9.84493V12.344Z" fill="#F8F8F2"/>
<path d="M0 2.38562L0.448071 3.15554L1.31266 4.65753V2.38562H0.448071H0Z" fill="#F8F8F2"/>
<path d="M1.45166 4.90365L2.29731 6.36146V2.38562H1.45166V4.90365Z" fill="#F8F8F2"/>
<path d="M2.46094 6.64545L3.27504 8.05908V2.38562H2.46094V6.64545Z" fill="#F8F8F2"/>
<path d="M3.46533 8.38724L4.2605 9.7567V2.38562H3.46533V8.38724Z" fill="#F8F8F2"/>
<path d="M5.23772 2.38562H4.4741V9.83874H4.30371L4.48041 10.148L5.42704 11.7825V9.83874H5.23772V2.38562Z" fill="#F8F8F2"/>
<path d="M6.22271 2.38562H5.47803V9.84505H5.49065V11.8961L5.74939 12.3441H6.40572V9.83874H6.22271V2.38562Z" fill="#F8F8F2"/>
<path d="M7.20092 2.38562H6.48779V9.84505H6.4941V12.3441H7.39025V9.83874H7.20092V2.38562Z" fill="#F8F8F2"/>
<path d="M8.18541 2.3855H7.85724V0H7.66791V2.3855H7.49121V9.84493H7.50383V12.344H8.36842V9.83862H8.18541V2.3855Z" fill="#F8F8F2"/>
<path d="M9.16362 2.3855H8.86701V0H8.65244V2.3855H8.50098V9.84493H8.50729V12.344H9.35294V9.83862H9.16362V2.3855Z" fill="#F8F8F2"/>
<path d="M10.1481 2.3855H9.87042V0H9.63061V2.3855H9.50439V9.84493H9.51702V12.344H10.3311V9.83862H10.1481V2.3855Z" fill="#F8F8F2"/>
<path d="M11.1263 2.3855H10.8739V0H10.6151V2.3855H10.5142V9.84493H10.5205V12.344H11.3156V9.83862H11.1263V2.3855Z" fill="#F8F8F2"/>
<path d="M12.2933 12.344V9.83862H12.1103V2.3855H11.8831V0H11.5928V2.3855H11.5171V9.84493H11.5297V12.344H12.2933Z" fill="#F8F8F2"/>
<path d="M12.5332 12.344H13.2778V9.83862H13.0885V2.3855H12.8866V0H12.5773V2.3855H12.5269V9.84493H12.5332V12.344Z" fill="#F8F8F2"/>
<path d="M13.5434 12.344H14.2565V9.83862H14.0735V2.3855H13.8968V0H13.556V2.3855H13.5308V9.84493H13.5434V12.344Z" fill="#F8F8F2"/>
<path d="M16.2186 12.344V9.83862H16.0356V2.3855H15.9093V0H15.5181V12.344H15.9093H16.2186Z" fill="#F8F8F2"/>
<path d="M17.2034 12.344V9.83862H17.0141V2.3855H16.9131V0H16.5029V12.344H16.9131H17.2034Z" fill="#F8F8F2"/>
<path d="M12.3061 23.7036V22.2079L11.877 22.9589L12.3061 23.7036Z" fill="#F8F8F2"/>
<path d="M12.4956 24.0317L13.2908 25.4012V20.5103L12.4956 21.8797V24.0317Z" fill="#F8F8F2"/>
<path d="M13.8966 19.4564C13.8588 19.5195 13.5306 20.0938 13.5054 20.138V25.7736L14.2753 27.0989V18.8064L14.2627 18.8316L13.903 19.4564H13.8966Z" fill="#F8F8F2"/>
<path d="M20.157 9.83862H19.9613V2.3855H19.9361V0H19.4438V20.1001H19.5448V28.6639H19.7215V33.4475L20.1633 32.6902V9.83862H20.157Z" fill="#F8F8F2"/>
<path d="M14.5088 18.3962V27.5217C14.6792 27.8183 15.0768 28.5125 15.2535 28.8091V17.1088C15.2535 17.1088 15.2408 17.134 15.2345 17.134C15.02 17.5 14.717 18.0301 14.5088 18.3962Z" fill="#F8F8F2"/>
<path d="M15.5181 16.648V28.6575H15.6948V29.5663L16.2375 30.5003V15.3984C16.2375 15.3984 16.2249 15.4237 16.2186 15.4237C16.0103 15.7834 15.72 16.2883 15.5181 16.6417" fill="#F8F8F2"/>
<path d="M16.5029 14.944V28.6575H16.7049V31.3144L17.2224 32.2042V13.7008C17.2224 13.7008 17.2097 13.726 17.2034 13.726C16.9952 14.0921 16.7112 14.578 16.5029 14.9377" fill="#F8F8F2"/>
<path d="M17.9984 2.3855H17.9227V0H17.481V12.344H17.9984C17.8407 12.6154 17.6324 12.9751 17.481 13.2402V28.6576H17.7081V33.0563L18.2004 33.9019V9.83862H17.9984V2.3855Z" fill="#F8F8F2"/>
<path d="M18.977 2.3855H18.9265V0H18.4658V20.1001H18.5352V28.6639H18.7183V34.8044L18.8318 35L19.1789 34.3878V9.83862H18.977V2.3855Z" fill="#F8F8F2"/>
<path d="M20.9399 0H20.4287V20.1001H20.5486V28.6639H20.7316V31.7057L21.1418 30.9863V9.83862H20.9399V0Z" fill="#F8F8F2"/>
<path d="M21.949 0H21.4062V20.1001H21.5577V28.6639H21.7344V29.9639L22.1257 29.2887V9.83862H21.949V0Z" fill="#F8F8F2"/>
</svg>
