<svg width="128" height="14" viewBox="0 0 128 14" fill="none" xmlns="http://www.w3.org/2000/svg">
<path d="M0.00016418 6.267H3.00751V2.93552H5.4566V6.267H8.46394V8.51801H5.4566V11.8495H3.00751V8.51801H0.00016418V6.267ZM15.1196 0.288335H17.9289V12.7679H15.1196V0.288335ZM24.1309 0.288335C24.347 0.684512 24.5931 1.17673 24.8693 1.76499C25.1574 2.34125 25.4515 2.97153 25.7517 3.65584C26.0638 4.32814 26.3699 5.01845 26.6701 5.72676C26.9702 6.43508 27.2523 7.10138 27.5164 7.72566C27.7806 7.10138 28.0627 6.43508 28.3628 5.72676C28.663 5.01845 28.9631 4.32814 29.2632 3.65584C29.5754 2.97153 29.8695 2.34125 30.1456 1.76499C30.4337 1.17673 30.6859 0.684512 30.902 0.288335H33.4591C33.5792 1.11671 33.6872 2.04712 33.7832 3.07958C33.8913 4.10004 33.9813 5.16851 34.0534 6.28501C34.1374 7.3895 34.2094 8.5 34.2695 9.6165C34.3415 10.733 34.4015 11.7835 34.4495 12.7679H31.7123C31.6763 11.5554 31.6283 10.2348 31.5683 8.80614C31.5082 7.3775 31.4182 5.93686 31.2981 4.48421C31.082 4.98843 30.8419 5.54668 30.5778 6.15896C30.3137 6.77123 30.0496 7.3835 29.7855 7.99578C29.5333 8.60805 29.2872 9.19631 29.0471 9.76056C28.807 10.3128 28.6029 10.787 28.4349 11.1832H26.472C26.3039 10.787 26.0998 10.3128 25.8597 9.76056C25.6196 9.19631 25.3675 8.60805 25.1034 7.99578C24.8513 7.3835 24.5931 6.77123 24.329 6.15896C24.0649 5.54668 23.8248 4.98843 23.6087 4.48421C23.4886 5.93686 23.3986 7.3775 23.3386 8.80614C23.2786 10.2348 23.2305 11.5554 23.1945 12.7679H20.4573C20.5053 11.7835 20.5593 10.733 20.6194 9.6165C20.6914 8.5 20.7634 7.3895 20.8355 6.28501C20.9195 5.16851 21.0095 4.10004 21.1056 3.07958C21.2136 2.04712 21.3277 1.11671 21.4477 0.288335H24.1309ZM40.7246 0.144271C42.5855 0.144271 44.0141 0.474418 45.0106 1.13471C46.007 1.783 46.5052 2.85148 46.5052 4.34014C46.5052 5.84081 46.001 6.9273 44.9925 7.5996C43.9841 8.25989 42.5434 8.59004 40.6706 8.59004H39.7882V12.7679H36.979V0.468416C37.5912 0.348362 38.2395 0.264325 38.9238 0.216303C39.6081 0.168282 40.2084 0.144271 40.7246 0.144271ZM40.9047 2.53934C40.7006 2.53934 40.4965 2.54534 40.2924 2.55735C40.1004 2.56935 39.9323 2.58136 39.7882 2.59336V6.19497H40.6706C41.643 6.19497 42.3754 6.06291 42.8676 5.79879C43.3598 5.53468 43.6059 5.04246 43.6059 4.32214C43.6059 3.97398 43.5399 3.68585 43.4078 3.45775C43.2878 3.22965 43.1077 3.04957 42.8676 2.91751C42.6395 2.77344 42.3574 2.6774 42.0212 2.62938C41.6851 2.56935 41.3129 2.53934 40.9047 2.53934ZM55.6928 12.7679C55.5608 12.3357 55.4107 11.8915 55.2426 11.4353C55.0866 10.9791 54.9305 10.5229 54.7744 10.0667H49.9123C49.7562 10.5229 49.5941 10.9791 49.426 11.4353C49.27 11.8915 49.1259 12.3357 48.9938 12.7679H46.0765C46.5448 11.4233 46.9889 10.1808 47.4091 9.04024C47.8293 7.89973 48.2375 6.82525 48.6337 5.8168C49.0419 4.80835 49.438 3.85393 49.8222 2.95352C50.2184 2.04112 50.6266 1.15272 51.0468 0.288335H53.73C54.1381 1.15272 54.5403 2.04112 54.9365 2.95352C55.3327 3.85393 55.7288 4.80835 56.125 5.8168C56.5332 6.82525 56.9474 7.89973 57.3676 9.04024C57.7878 10.1808 58.232 11.4233 58.7002 12.7679H55.6928ZM52.3253 3.1156C52.2653 3.29568 52.1753 3.54179 52.0552 3.85393C51.9352 4.16607 51.7971 4.52623 51.641 4.93441C51.485 5.34259 51.3109 5.79279 51.1188 6.28501C50.9387 6.77723 50.7526 7.29346 50.5605 7.8337H54.1081C53.916 7.29346 53.73 6.77723 53.5499 6.28501C53.3698 5.79279 53.1957 5.34259 53.0276 4.93441C52.8716 4.52623 52.7335 4.16607 52.6135 3.85393C52.4934 3.54179 52.3974 3.29568 52.3253 3.1156ZM65.5489 13.02C63.52 13.02 61.9713 12.4558 60.9028 11.3273C59.8463 10.1988 59.3181 8.59604 59.3181 6.51912C59.3181 5.48666 59.4801 4.56825 59.8043 3.76389C60.1284 2.94752 60.5726 2.26322 61.1369 1.71097C61.7011 1.14672 62.3734 0.720528 63.1538 0.432399C63.9341 0.14427 64.7805 0.000206205 65.6929 0.000206205C66.2212 0.000206205 66.7014 0.0422251 67.1336 0.126263C67.5658 0.198295 67.9439 0.288335 68.2681 0.396383C68.5922 0.492426 68.8623 0.594472 69.0784 0.70252C69.2945 0.810569 69.4506 0.894606 69.5466 0.954633L68.7363 3.22365C68.3521 3.01955 67.9019 2.84548 67.3857 2.70141C66.8815 2.55735 66.3052 2.48532 65.6569 2.48532C65.2247 2.48532 64.7985 2.55735 64.3783 2.70141C63.9702 2.84548 63.604 3.07958 63.2798 3.40373C62.9677 3.71587 62.7156 4.12405 62.5235 4.62827C62.3314 5.1325 62.2354 5.74477 62.2354 6.46509C62.2354 7.04135 62.2954 7.58159 62.4155 8.08582C62.5475 8.57804 62.7516 9.00423 63.0277 9.36439C63.3159 9.72455 63.688 10.0127 64.1442 10.2288C64.6004 10.4329 65.1527 10.5349 65.801 10.5349C66.2092 10.5349 66.5753 10.5109 66.8995 10.4629C67.2236 10.4149 67.5117 10.3608 67.7638 10.3008C68.016 10.2288 68.2381 10.1507 68.4301 10.0667C68.6222 9.98266 68.7963 9.90463 68.9524 9.8326L69.7267 12.0836C69.3305 12.3237 68.7723 12.5398 68.052 12.7319C67.3317 12.924 66.4973 13.02 65.5489 13.02ZM81.1784 0.288335V2.6834H77.4147V12.7679H74.6055V2.6834H70.8418V0.288335H81.1784ZM89.8624 12.7679C89.7303 12.3357 89.5803 11.8915 89.4122 11.4353C89.2561 10.9791 89.1 10.5229 88.944 10.0667H84.0818C83.9257 10.5229 83.7637 10.9791 83.5956 11.4353C83.4395 11.8915 83.2955 12.3357 83.1634 12.7679H80.2461C80.7143 11.4233 81.1585 10.1808 81.5787 9.04024C81.9989 7.89973 82.4071 6.82525 82.8032 5.8168C83.2114 4.80835 83.6076 3.85393 83.9918 2.95352C84.3879 2.04112 84.7961 1.15272 85.2163 0.288335H87.8995C88.3077 1.15272 88.7099 2.04112 89.106 2.95352C89.5022 3.85393 89.8984 4.80835 90.2946 5.8168C90.7028 6.82525 91.1169 7.89973 91.5371 9.04024C91.9573 10.1808 92.4015 11.4233 92.8697 12.7679H89.8624ZM86.4949 3.1156C86.4349 3.29568 86.3448 3.54179 86.2248 3.85393C86.1047 4.16607 85.9666 4.52623 85.8106 4.93441C85.6545 5.34259 85.4804 5.79279 85.2883 6.28501C85.1083 6.77723 84.9222 7.29346 84.7301 7.8337H88.2777C88.0856 7.29346 87.8995 6.77723 87.7194 6.28501C87.5393 5.79279 87.3653 5.34259 87.1972 4.93441C87.0411 4.52623 86.9031 4.16607 86.783 3.85393C86.663 3.54179 86.5669 3.29568 86.4949 3.1156ZM102.859 12.7679C102.054 11.3393 101.184 9.92864 100.248 8.53602C99.3113 7.1434 98.3148 5.82881 97.2583 4.59226V12.7679H94.4851V0.288335H96.7721C97.1683 0.684512 97.6065 1.17073 98.0867 1.74699C98.5669 2.32324 99.0531 2.94152 99.5454 3.60181C100.05 4.2501 100.548 4.92841 101.04 5.63672C101.532 6.33303 101.994 7.00533 102.427 7.65362V0.288335H105.218V12.7679H102.859ZM117.353 0.288335V2.6834H113.589V12.7679H110.78V2.6834H107.016V0.288335H117.353ZM119.158 12.7679V0.288335H127.586V2.64739H121.967V5.09648H126.956V7.40151H121.967V10.4089H128V12.7679H119.158Z" fill="white"/>
</svg>
