<svg preserveAspectRatio="none" width="100%" height="100%" overflow="visible" style="display: block;" viewBox="0 0 137 59" fill="none" xmlns="http://www.w3.org/2000/svg">
<g id="logo setima">
<path id="Vector" d="M63.3894 -0.000206023V2.70929L64.9542 -0.000206023H63.3894Z" fill="var(--fill-0, #F8F8F2)"/>
<path id="Vector_2" d="M61.7611 5.5448L63.3259 2.82481V-0.000206023H61.7611V5.5448Z" fill="var(--fill-0, #F8F8F2)"/>
<path id="Vector_3" d="M60.1234 8.36981L61.6461 5.72333V-0.000206023H60.1234V8.36981Z" fill="var(--fill-0, #F8F8F2)"/>
<path id="Vector_4" d="M58.4956 11.2053L59.9764 8.63236V-0.000206023H58.4956V11.2053Z" fill="var(--fill-0, #F8F8F2)"/>
<path id="Vector_5" d="M56.8573 14.0303L58.2961 11.5309V-0.000206023H56.8573V14.0303Z" fill="var(--fill-0, #F8F8F2)"/>
<path id="Vector_6" d="M55.2296 16.8554L56.6263 14.4294V-0.000206023H55.2296V16.8554Z" fill="var(--fill-0, #F8F8F2)"/>
<path id="Vector_7" d="M53.5907 19.6909C53.9478 19.0608 54.5989 17.9476 54.9454 17.3384V-0.000206023H53.5907V19.6909Z" fill="var(--fill-0, #F8F8F2)"/>
<path id="Vector_8" d="M51.9635 22.5159C52.3101 21.9068 52.9402 20.8356 53.2763 20.237V-0.000206023H51.9635V22.5159Z" fill="var(--fill-0, #F8F8F2)"/>
<path id="Vector_9" d="M50.3252 25.3409C50.6613 24.7528 51.2599 23.7131 51.5959 23.1355V-0.000206023H50.3252V25.3409Z" fill="var(--fill-0, #F8F8F2)"/>
<path id="Vector_10" d="M48.6969 28.1764C49.0225 27.6198 49.6106 26.6011 49.9256 26.0445V-0.000206023H48.6969V28.1764Z" fill="var(--fill-0, #F8F8F2)"/>
<path id="Vector_11" d="M47.0591 31.0014C47.3637 30.4763 47.9518 29.4681 48.2459 28.943V-0.000206023H47.0591V31.0014Z" fill="var(--fill-0, #F8F8F2)"/>
<path id="Vector_12" d="M46.5755 -0.000206023H45.4203V33.8264C45.7143 33.3223 46.2919 32.3142 46.586 31.8101V16.3723H46.5755V-0.000206023Z" fill="var(--fill-0, #F8F8F2)"/>
<path id="Vector_13" d="M44.8952 -0.000206023H43.7925V33.4484H44.2441V35.8743L44.9793 34.6036V16.3723H44.8952V-0.000206023Z" fill="var(--fill-0, #F8F8F2)"/>
<path id="Vector_14" d="M43.226 -0.000206023H42.1548V33.4484H42.5748V38.7728L43.3415 37.4286V16.3723H43.226V-0.000206023Z" fill="var(--fill-0, #F8F8F2)"/>
<path id="Vector_15" d="M41.5452 -0.000206023H40.5265V33.4484H40.894V41.6714L41.7132 40.2641V16.3723H41.5452V-0.000206023Z" fill="var(--fill-0, #F8F8F2)"/>
<path id="Vector_16" d="M39.8759 -0.000206023H38.8887V33.4484H39.2248V44.5699L40.0754 43.0891V16.3723H39.8759V-0.000206023Z" fill="var(--fill-0, #F8F8F2)"/>
<path id="Vector_17" d="M38.1951 -0.000206023H37.2604V33.4484H37.544V47.4789L38.4471 45.9141V16.3723H38.1951V-0.000206023Z" fill="var(--fill-0, #F8F8F2)"/>
<path id="Vector_18" d="M24.1962 20.5415H25.3619V16.3723H25.0469V3.96952H24.7948V-0.000206023H24.1962V3.96952V16.3828V20.5415Z" fill="var(--fill-0, #F8F8F2)"/>
<path id="Vector_19" d="M0 3.96902L0.745635 5.25025L2.1844 7.74971V3.96902H0.745635H0Z" fill="var(--fill-0, #F8F8F2)"/>
<path id="Vector_20" d="M2.41511 8.15928L3.82236 10.5852V3.96902H2.41511V8.15928Z" fill="var(--fill-0, #F8F8F2)"/>
<path id="Vector_21" d="M4.09525 11.0578L5.45 13.4102V3.96902H4.09525V11.0578Z" fill="var(--fill-0, #F8F8F2)"/>
<path id="Vector_22" d="M5.76536 13.9563L7.0886 16.2352V3.96902H5.76536V13.9563Z" fill="var(--fill-0, #F8F8F2)"/>
<path id="Vector_23" d="M8.71595 3.96902H7.44522V16.3718H7.16167L7.45572 16.8864L9.03101 19.6064V16.3718H8.71595V3.96902Z" fill="var(--fill-0, #F8F8F2)"/>
<path id="Vector_24" d="M10.3543 3.96902H9.11506V16.3823H9.13606V19.7954L9.56664 20.541H10.6588V16.3718H10.3543V3.96902Z" fill="var(--fill-0, #F8F8F2)"/>
<path id="Vector_25" d="M11.9825 3.96902H10.7958V16.3823H10.8063V20.541H12.2975V16.3718H11.9825V3.96902Z" fill="var(--fill-0, #F8F8F2)"/>
<path id="Vector_26" d="M13.6211 3.96952H13.075V-0.000206023H12.7599V3.96952H12.4659V16.3828H12.4869V20.5415H13.9256V16.3723H13.6211V3.96952Z" fill="var(--fill-0, #F8F8F2)"/>
<path id="Vector_27" d="M15.2487 3.96952H14.7551V-0.000206023H14.3981V3.96952H14.146V16.3828H14.1565V20.5415H15.5638V16.3723H15.2487V3.96952Z" fill="var(--fill-0, #F8F8F2)"/>
<path id="Vector_28" d="M16.8868 3.96952H16.4247V-0.000206023H16.0256V3.96952H15.8156V16.3828H15.8366V20.5415H17.1913V16.3723H16.8868V3.96952Z" fill="var(--fill-0, #F8F8F2)"/>
<path id="Vector_29" d="M18.5144 3.96952H18.0943V-0.000206023H17.6637V3.96952H17.4957V16.3828H17.5062V20.5415H18.8295V16.3723H18.5144V3.96952Z" fill="var(--fill-0, #F8F8F2)"/>
<path id="Vector_30" d="M20.4576 20.5415V16.3723H20.153V3.96952H19.7749V-0.000206023H19.2918V3.96952H19.1658V16.3828H19.1868V20.5415H20.4576Z" fill="var(--fill-0, #F8F8F2)"/>
<path id="Vector_31" d="M20.8565 20.5415H22.0957V16.3723H21.7806V3.96952H21.4446V-0.000206023H20.93V3.96952H20.846V16.3828H20.8565V20.5415Z" fill="var(--fill-0, #F8F8F2)"/>
<path id="Vector_32" d="M22.5371 20.5415H23.7238V16.3723H23.4192V3.96952H23.1252V-0.000206023H22.5581V3.96952H22.5161V16.3828H22.5371V20.5415Z" fill="var(--fill-0, #F8F8F2)"/>
<path id="Vector_33" d="M26.9897 20.5415V16.3723H26.6851V3.96952H26.4751V-0.000206023H25.8239V20.5415H26.4751H26.9897Z" fill="var(--fill-0, #F8F8F2)"/>
<path id="Vector_34" d="M28.628 20.5415V16.3723H28.3129V3.96952H28.1449V-0.000206023H27.4623V20.5415H28.1449H28.628Z" fill="var(--fill-0, #F8F8F2)"/>
<path id="Vector_35" d="M20.4783 39.4453V36.9563L19.7642 38.206L20.4783 39.4453Z" fill="var(--fill-0, #F8F8F2)"/>
<path id="Vector_36" d="M20.7936 39.9909L22.1168 42.2698V34.1308L20.7936 36.4097V39.9909Z" fill="var(--fill-0, #F8F8F2)"/>
<path id="Vector_37" d="M23.1248 32.3769C23.0618 32.4819 22.5157 33.4376 22.4737 33.5111V42.8893L23.7549 45.0947V31.2952L23.7339 31.3372L23.1353 32.3769H23.1248Z" fill="var(--fill-0, #F8F8F2)"/>
<path id="Vector_38" d="M33.5428 16.3723H33.2172V3.96952H33.1752V-0.000206023H32.3561V33.4484H32.5241V47.6995H32.8181V55.6599L33.5533 54.3997V16.3723H33.5428Z" fill="var(--fill-0, #F8F8F2)"/>
<path id="Vector_39" d="M24.1438 30.6132V45.799C24.4274 46.2926 25.089 47.4478 25.383 47.9414V28.4708C25.383 28.4708 25.362 28.5128 25.3515 28.5128C24.9945 29.1219 24.4904 30.0041 24.1438 30.6132Z" fill="var(--fill-0, #F8F8F2)"/>
<path id="Vector_40" d="M25.8239 27.704V47.6892H26.118V49.2015L27.0212 50.7557V25.6247C27.0212 25.6247 27.0002 25.6667 26.9897 25.6667C26.6431 26.2653 26.16 27.1054 25.8239 27.6935" fill="var(--fill-0, #F8F8F2)"/>
<path id="Vector_41" d="M27.4623 24.8686V47.6892H27.7983V52.1105L28.6595 53.5913V22.7997C28.6595 22.7997 28.6385 22.8417 28.628 22.8417C28.2814 23.4508 27.8088 24.2595 27.4623 24.8581" fill="var(--fill-0, #F8F8F2)"/>
<path id="Vector_42" d="M29.9512 3.96951H29.8251V-0.000206023H29.09V20.5415H29.9512C29.6886 20.9931 29.342 21.5917 29.09 22.0328V47.689H29.4681V55.0088L30.2872 56.416V16.3723H29.9512V3.96951Z" fill="var(--fill-0, #F8F8F2)"/>
<path id="Vector_43" d="M31.579 3.96951H31.495V-0.000206023H30.7283V33.4484H30.8438V47.6995H31.1484V57.9178L31.3374 58.2434L31.915 57.2247V16.3723H31.579V3.96951Z" fill="var(--fill-0, #F8F8F2)"/>
<path id="Vector_44" d="M34.8456 -0.000206023H33.9949V33.4484H34.1945V47.6995H34.499V52.7614L35.1817 51.5642V16.3723H34.8456V-0.000206023Z" fill="var(--fill-0, #F8F8F2)"/>
<path id="Vector_45" d="M36.5253 -0.000206023H35.6221V33.4484H35.8742V47.6995H36.1682V49.8629L36.8193 48.7391V16.3723H36.5253V-0.000206023Z" fill="var(--fill-0, #F8F8F2)"/>
<path id="Vector_46" d="M135.139 35.6014L133.521 32.0518H126.338L124.721 35.6014H123.219L129.342 22.348H130.549L136.672 35.6014H135.118H135.139ZM132.912 30.718L129.94 24.1754L126.947 30.718H132.912Z" fill="var(--fill-0, #F8F8F2)"/>
<path id="Vector_47" d="M135.296 23.7341C134.529 23.7341 133.909 23.1145 133.909 22.3373C133.909 21.5602 134.539 20.9406 135.306 20.9406C136.073 20.9406 136.692 21.5602 136.692 22.3268C136.692 23.0934 136.062 23.7236 135.296 23.7236M135.296 21.1716C134.644 21.1716 134.13 21.6862 134.13 22.3373C134.13 22.9884 134.634 23.503 135.285 23.503C135.936 23.503 136.451 22.9884 136.451 22.3268C136.451 21.6652 135.947 21.1611 135.296 21.1611M135.726 23.0409L135.296 22.4948H135.001V23.0409H134.718V21.5707H135.38C135.705 21.5707 135.936 21.7597 135.936 22.0223C135.936 22.2323 135.821 22.3793 135.611 22.4528L136.083 23.0409H135.716H135.726ZM135.359 22.2218C135.432 22.2218 135.653 22.2113 135.653 22.0223C135.653 21.8542 135.464 21.8437 135.38 21.8437H135.001V22.2218H135.359Z" fill="var(--fill-0, #F8F8F2)"/>
<path id="Vector_48" d="M118.514 35.6014V25.005L113.851 31.7892H113.536L108.873 25.005V35.6014H107.497V22.348H108.747L113.714 29.6679L118.682 22.348H119.931V35.6014H118.514Z" fill="var(--fill-0, #F8F8F2)"/>
<path id="Vector_49" d="M103.937 22.348H102.52V35.6014H103.937V22.348Z" fill="var(--fill-0, #F8F8F2)"/>
<path id="Vector_50" d="M93.1306 35.6014V23.6818H88.7093V22.348H98.9591V23.6818H94.5378V35.6014H93.1306Z" fill="var(--fill-0, #F8F8F2)"/>
<path id="Vector_51" d="M75.5608 35.6014V22.348H85.1491V23.6818H76.9681V28.3026H84.2354V29.6363H76.9681V34.2572H85.1491V35.6014H75.5608Z" fill="var(--fill-0, #F8F8F2)"/>
<path id="Vector_52" d="M67.0862 35.7801C66.099 35.7801 65.1433 35.612 64.2401 35.297C63.337 34.9714 62.6228 34.5513 62.1187 34.0367L62.0767 33.9842L62.7069 32.7345L62.8014 32.8185C63.253 33.2596 63.8726 33.6377 64.6497 33.9422C65.4163 34.2468 66.246 34.3938 67.0967 34.3938C67.9473 34.3938 68.5774 34.2888 69.092 34.0892C69.5961 33.8897 69.9637 33.6167 70.1947 33.2806C70.4258 32.9445 70.5413 32.5665 70.5413 32.1674C70.5413 31.6843 70.4047 31.2852 70.1212 30.9912C69.8376 30.6866 69.4596 30.4451 68.9975 30.2666C68.5249 30.088 67.9998 29.9305 67.4222 29.7835C66.8236 29.6469 66.246 29.4894 65.6894 29.3424C65.1013 29.1849 64.5657 28.9643 64.0721 28.7018C63.5785 28.4287 63.1689 28.0717 62.8749 27.6306C62.5703 27.179 62.4128 26.5909 62.4128 25.8768C62.4128 25.2046 62.5913 24.585 62.9484 24.0284C63.3055 23.4718 63.8516 23.0097 64.5867 22.6737C65.3113 22.3376 66.246 22.1696 67.3802 22.1696C68.1258 22.1696 68.882 22.2746 69.6066 22.4846C70.3417 22.6947 70.9824 22.9887 71.518 23.3563L71.581 23.3983L71.0349 24.69L70.9404 24.627C70.3838 24.2595 69.7851 23.9864 69.1655 23.8079C68.5459 23.6293 67.9368 23.5453 67.3487 23.5453C66.5716 23.5453 65.9204 23.6503 65.4268 23.8604C64.9333 24.0704 64.5657 24.3435 64.3241 24.69C64.0826 25.0366 63.9776 25.4252 63.9776 25.8558C63.9776 26.3493 64.1141 26.7379 64.3977 27.032C64.6812 27.3365 65.0593 27.5781 65.5319 27.7461C66.015 27.9246 66.54 28.0822 67.1177 28.2187C67.6848 28.3552 68.2729 28.5127 68.8505 28.6703C69.4281 28.8383 69.9637 29.0483 70.4468 29.3109C70.9404 29.5734 71.3499 29.9305 71.6545 30.3716C71.959 30.8127 72.1166 31.4008 72.1166 32.1044C72.1166 32.7555 71.938 33.3751 71.5705 33.9422C71.2134 34.4988 70.6568 34.9609 69.9217 35.297C69.1865 35.633 68.2414 35.8011 67.1072 35.8011" fill="var(--fill-0, #F8F8F2)"/>
</g>
</svg>
