<svg preserveAspectRatio="none" width="100%" height="100%" overflow="visible" style="display: block;" viewBox="0 0 38 38" fill="none" xmlns="http://www.w3.org/2000/svg">
<g id="linkedin">
<path id="Vector" d="M17.3768 0.0453758C34.3676 -1.06718 44.3916 18.5285 33.1813 31.4153C24.1003 41.8545 7.23942 39.1819 1.62053 26.634C-3.63929 14.8872 4.50648 0.888483 17.3768 0.0453758ZM9.97906 7.63456C6.59139 8.02716 7.01569 13.3205 10.7258 12.884C13.9733 12.5018 13.4935 7.22733 9.97906 7.63456ZM30.1899 30.257V19.8051C30.1899 19.3381 29.5571 17.9238 29.3004 17.4787C27.9824 15.1884 24.9685 14.4648 22.5385 15.2408C21.3363 15.6249 20.3359 16.3954 19.5129 17.3288V15.2061H15.2681V30.257H19.7708V21.7345C19.7708 21.3651 20.2347 20.4293 20.4798 20.1282C21.6265 18.7163 24.3741 18.7394 25.3147 20.372C25.4251 20.5628 25.6884 21.2236 25.6884 21.4132V30.257H30.1911H30.1899ZM12.6309 30.257V15.303C12.6309 15.2963 12.5413 15.2067 12.5346 15.2067H8.00023V30.2576H12.6315L12.6309 30.257Z" fill="var(--fill-0, #F8F8F2)"/>
</g>
</svg>
