<svg preserveAspectRatio="none" width="100%" height="100%" overflow="visible" style="display: block;" viewBox="0 0 140 60" fill="none" xmlns="http://www.w3.org/2000/svg">
<g id="logo setima">
<path id="Vector" d="M64.9232 0.000152588V2.7752L66.5258 0.000152588H64.9232Z" fill="var(--fill-0, #F8F8F2)"/>
<path id="Vector_2" d="M63.256 5.67932L64.8586 2.89351V0.000152588H63.256V5.67932Z" fill="var(--fill-0, #F8F8F2)"/>
<path id="Vector_3" d="M61.5781 8.57268L63.1377 5.86217V0.000152588H61.5781V8.57268Z" fill="var(--fill-0, #F8F8F2)"/>
<path id="Vector_4" d="M59.9109 11.4768L61.4275 8.84158V0.000152588H59.9109V11.4768Z" fill="var(--fill-0, #F8F8F2)"/>
<path id="Vector_5" d="M58.2329 14.3702L59.7065 11.8102V0.000152588H58.2329V14.3702Z" fill="var(--fill-0, #F8F8F2)"/>
<path id="Vector_6" d="M56.5657 17.2635L57.9963 14.7789V0.000152588H56.5657V17.2635Z" fill="var(--fill-0, #F8F8F2)"/>
<path id="Vector_7" d="M54.8878 20.1676C55.2535 19.5223 55.9204 18.3821 56.2753 17.7583V0.000152588H54.8878V20.1676Z" fill="var(--fill-0, #F8F8F2)"/>
<path id="Vector_8" d="M53.2206 23.061C53.5756 22.4372 54.2209 21.34 54.5651 20.7269V0.000152588H53.2206V23.061Z" fill="var(--fill-0, #F8F8F2)"/>
<path id="Vector_9" d="M51.5427 25.9544C51.8869 25.352 52.5 24.2872 52.8442 23.6956V0.000152588H51.5427V25.9544Z" fill="var(--fill-0, #F8F8F2)"/>
<path id="Vector_10" d="M49.8755 28.8585C50.209 28.2884 50.8113 27.2451 51.134 26.675V0.000152588H49.8755V28.8585Z" fill="var(--fill-0, #F8F8F2)"/>
<path id="Vector_11" d="M48.1976 31.7518C48.5095 31.214 49.1118 30.1815 49.413 29.6437V0.000152588H48.1976V31.7518Z" fill="var(--fill-0, #F8F8F2)"/>
<path id="Vector_12" d="M47.7028 0.000152588H46.5197V34.6452C46.8208 34.1289 47.4124 33.0963 47.7136 32.5801V16.7687H47.7028V0.000152588Z" fill="var(--fill-0, #F8F8F2)"/>
<path id="Vector_13" d="M45.9819 0.000152588H44.8525V34.258H45.315V36.7426L46.0679 35.4411V16.7687H45.9819V0.000152588Z" fill="var(--fill-0, #F8F8F2)"/>
<path id="Vector_14" d="M44.2717 0.000152588H43.1746V34.258H43.6048V39.7113L44.39 38.3345V16.7687H44.2717V0.000152588Z" fill="var(--fill-0, #F8F8F2)"/>
<path id="Vector_15" d="M42.5507 0.000152588H41.5074V34.258H41.8838V42.6799L42.7228 41.2386V16.7687H42.5507V0.000152588Z" fill="var(--fill-0, #F8F8F2)"/>
<path id="Vector_16" d="M40.8405 0.000152588H39.8295V34.258H40.1737V45.6486L41.0449 44.132V16.7687H40.8405V0.000152588Z" fill="var(--fill-0, #F8F8F2)"/>
<path id="Vector_17" d="M39.1195 0.000152588H38.1622V34.258H38.4526V48.628L39.3777 47.0254V16.7687H39.1195V0.000152588Z" fill="var(--fill-0, #F8F8F2)"/>
<path id="Vector_18" d="M24.7818 21.0389H25.9757V16.7687H25.653V4.06592H25.3949V0.000152588H24.7818V4.06592V16.7795V21.0389Z" fill="var(--fill-0, #F8F8F2)"/>
<path id="Vector_19" d="M0 4.06567L0.763675 5.3779L2.23725 7.93783V4.06567H0.763675H0Z" fill="var(--fill-0, #F8F8F2)"/>
<path id="Vector_20" d="M2.47388 8.35731L3.91518 10.8419V4.06567H2.47388V8.35731Z" fill="var(--fill-0, #F8F8F2)"/>
<path id="Vector_21" d="M4.19482 11.326L5.58235 13.7353V4.06567H4.19482V11.326Z" fill="var(--fill-0, #F8F8F2)"/>
<path id="Vector_22" d="M5.90503 14.2946L7.26028 16.6287V4.06567H5.90503V14.2946Z" fill="var(--fill-0, #F8F8F2)"/>
<path id="Vector_23" d="M8.92746 4.06567H7.62598V16.7685H7.33557L7.63674 17.2955L9.25014 20.0813V16.7685H8.92746V4.06567Z" fill="var(--fill-0, #F8F8F2)"/>
<path id="Vector_24" d="M10.6054 4.06567H9.33618V16.7793H9.35769V20.275L9.79869 21.0386H10.9173V16.7685H10.6054V4.06567Z" fill="var(--fill-0, #F8F8F2)"/>
<path id="Vector_25" d="M12.2726 4.06567H11.0571V16.7793H11.0679V21.0386H12.5952V16.7685H12.2726V4.06567Z" fill="var(--fill-0, #F8F8F2)"/>
<path id="Vector_26" d="M13.9506 4.06592H13.3912V0.000152588H13.0686V4.06592H12.7674V16.7795H12.7889V21.0389H14.2625V16.7687H13.9506V4.06592Z" fill="var(--fill-0, #F8F8F2)"/>
<path id="Vector_27" d="M15.6177 4.06592H15.1122V0.000152588H14.7465V4.06592H14.4883V16.7795H14.4991V21.0389H15.9404V16.7687H15.6177V4.06592Z" fill="var(--fill-0, #F8F8F2)"/>
<path id="Vector_28" d="M17.2957 4.06592H16.8224V0.000152588H16.4137V4.06592H16.1985V16.7795H16.2201V21.0389H17.6076V16.7687H17.2957V4.06592Z" fill="var(--fill-0, #F8F8F2)"/>
<path id="Vector_29" d="M18.9628 4.06592H18.5326V0.000152588H18.0916V4.06592H17.9195V16.7795H17.9303V21.0389H19.2855V16.7687H18.9628V4.06592Z" fill="var(--fill-0, #F8F8F2)"/>
<path id="Vector_30" d="M20.9527 21.0389V16.7687H20.6408V4.06592H20.2535V0.000152588H19.7588V4.06592H19.6297V16.7795H19.6512V21.0389H20.9527Z" fill="var(--fill-0, #F8F8F2)"/>
<path id="Vector_31" d="M21.3614 21.0389H22.6306V16.7687H22.3079V4.06592H21.9637V0.000152588H21.4367V4.06592H21.3506V16.7795H21.3614V21.0389Z" fill="var(--fill-0, #F8F8F2)"/>
<path id="Vector_32" d="M23.0824 21.0389H24.2978V16.7687H23.9859V4.06592H23.6847V0.000152588H23.1039V4.06592H23.0609V16.7795H23.0824V21.0389Z" fill="var(--fill-0, #F8F8F2)"/>
<path id="Vector_33" d="M27.6429 21.0389V16.7687H27.331V4.06592H27.1158V0.000152588H26.449V21.0389H27.1158H27.6429Z" fill="var(--fill-0, #F8F8F2)"/>
<path id="Vector_34" d="M29.3208 21.0389V16.7687H28.9981V4.06592H28.826V0.000152588H28.1269V21.0389H28.826H29.3208Z" fill="var(--fill-0, #F8F8F2)"/>
<path id="Vector_35" d="M20.9742 40.3996V37.8504L20.2428 39.1304L20.9742 40.3996Z" fill="var(--fill-0, #F8F8F2)"/>
<path id="Vector_36" d="M21.2969 40.959L22.6521 43.293V34.9571L21.2969 37.2912V40.959Z" fill="var(--fill-0, #F8F8F2)"/>
<path id="Vector_37" d="M23.6847 33.1607C23.6202 33.2682 23.0608 34.247 23.0178 34.3223V43.9274L24.3301 46.1862V32.0528L24.3085 32.0958L23.6955 33.1607H23.6847Z" fill="var(--fill-0, #F8F8F2)"/>
<path id="Vector_38" d="M34.3546 16.7687H34.0212V4.06592H33.9782V0.000152588H33.1392V34.258H33.3113V48.8539H33.6125V57.0069L34.3654 55.7162V16.7687H34.3546Z" fill="var(--fill-0, #F8F8F2)"/>
<path id="Vector_39" d="M24.728 31.3537V46.9069C25.0184 47.4124 25.6961 48.5956 25.9972 49.1011V29.1595C25.9972 29.1595 25.9757 29.2025 25.965 29.2025C25.5993 29.8264 25.083 30.7299 24.728 31.3537Z" fill="var(--fill-0, #F8F8F2)"/>
<path id="Vector_40" d="M26.449 28.3743V48.843H26.7501V50.3919L27.6752 51.9838V26.2447C27.6752 26.2447 27.6536 26.2877 27.6429 26.2877C27.2879 26.9008 26.7932 27.7613 26.449 28.3636" fill="var(--fill-0, #F8F8F2)"/>
<path id="Vector_41" d="M28.1269 25.4703V48.8431H28.4711V53.3713L29.3531 54.8879V23.3513C29.3531 23.3513 29.3316 23.3944 29.3208 23.3944C28.9659 24.0182 28.4818 24.8464 28.1269 25.4595" fill="var(--fill-0, #F8F8F2)"/>
<path id="Vector_42" d="M30.6761 4.06592H30.547V0.000152588H29.7941V21.0389H30.6761C30.4072 21.5014 30.0522 22.1145 29.7941 22.5662V48.8431H30.1813V56.34L31.0202 57.7813V16.7687H30.6761V4.06592Z" fill="var(--fill-0, #F8F8F2)"/>
<path id="Vector_43" d="M32.3433 4.06592H32.2572V0.000152588H31.472V34.258H31.5904V48.8539H31.9023V59.3194L32.0959 59.6529L32.6875 58.6096V16.7687H32.3433V4.06592Z" fill="var(--fill-0, #F8F8F2)"/>
<path id="Vector_44" d="M35.6884 0.000152588H34.8171V34.258H35.0215V48.8539H35.3334V54.0383L36.0326 52.8121V16.7687H35.6884V0.000152588Z" fill="var(--fill-0, #F8F8F2)"/>
<path id="Vector_45" d="M37.4093 0.000152588H36.4843V34.258H36.7425V48.8539H37.0436V51.0696L37.7105 49.9187V16.7687H37.4093V0.000152588Z" fill="var(--fill-0, #F8F8F2)"/>
<path id="Vector_46" d="M138.408 36.4627L136.752 32.8272H129.395L127.738 36.4627H126.2L132.471 22.8887H133.708L139.978 36.4627H138.387H138.408ZM136.128 31.4612L133.084 24.7602L130.018 31.4612H136.128Z" fill="var(--fill-0, #F8F8F2)"/>
<path id="Vector_47" d="M138.569 24.3086C137.784 24.3086 137.15 23.674 137.15 22.8781C137.15 22.0821 137.795 21.4475 138.58 21.4475C139.365 21.4475 140 22.0821 140 22.8673C140 23.6525 139.355 24.2978 138.569 24.2978M138.569 21.6841C137.903 21.6841 137.376 22.2112 137.376 22.8781C137.376 23.5449 137.892 24.072 138.559 24.072C139.226 24.072 139.753 23.5449 139.753 22.8673C139.753 22.1897 139.236 21.6734 138.569 21.6734M139.01 23.5987L138.569 23.0394H138.268V23.5987H137.978V22.0929H138.655C138.989 22.0929 139.226 22.2865 139.226 22.5554C139.226 22.7705 139.107 22.9211 138.892 22.9964L139.376 23.5987H139H139.01ZM138.634 22.7597C138.709 22.7597 138.935 22.749 138.935 22.5554C138.935 22.3833 138.742 22.3725 138.655 22.3725H138.268V22.7597H138.634Z" fill="var(--fill-0, #F8F8F2)"/>
<path id="Vector_48" d="M121.381 36.4627V25.6099L116.606 32.5583H116.283L111.507 25.6099V36.4627H110.098V22.8887H111.378L116.466 30.3856L121.553 22.8887H122.833V36.4627H121.381Z" fill="var(--fill-0, #F8F8F2)"/>
<path id="Vector_49" d="M106.452 22.8887H105V36.4627H106.452V22.8887Z" fill="var(--fill-0, #F8F8F2)"/>
<path id="Vector_50" d="M95.3841 36.4627V24.2547H90.8558V22.8887H101.354V24.2547H96.8254V36.4627H95.3841Z" fill="var(--fill-0, #F8F8F2)"/>
<path id="Vector_51" d="M77.3893 36.4627V22.8887H87.2096V24.2547H78.8307V28.9873H86.2738V30.3533H78.8307V35.086H87.2096V36.4627H77.3893Z" fill="var(--fill-0, #F8F8F2)"/>
<path id="Vector_52" d="M68.7093 36.6457C67.6982 36.6457 66.7194 36.4736 65.7944 36.1509C64.8694 35.8175 64.138 35.3872 63.6217 34.8602L63.5787 34.8064L64.224 33.5264L64.3208 33.6125C64.7833 34.0642 65.4179 34.4514 66.2139 34.7634C66.9991 35.0753 67.8488 35.2259 68.72 35.2259C69.5913 35.2259 70.2366 35.1183 70.7637 34.914C71.28 34.7096 71.6564 34.4299 71.8931 34.0857C72.1297 33.7416 72.248 33.3543 72.248 32.9456C72.248 32.4508 72.1082 32.0421 71.8178 31.7409C71.5273 31.429 71.1401 31.1816 70.6669 30.9988C70.1829 30.8159 69.6451 30.6546 69.0535 30.504C68.4404 30.3642 67.8488 30.2028 67.2787 30.0522C66.6764 29.8909 66.1278 29.665 65.6223 29.3961C65.1168 29.1165 64.6973 28.7508 64.3961 28.299C64.0842 27.8365 63.9229 27.2342 63.9229 26.5028C63.9229 25.8144 64.1057 25.1798 64.4714 24.6097C64.8371 24.0396 65.3964 23.5664 66.1494 23.2222C66.8915 22.878 67.8488 22.7059 69.0105 22.7059C69.7741 22.7059 70.5486 22.8135 71.2907 23.0286C72.0436 23.2437 72.6998 23.5449 73.2483 23.9213L73.3129 23.9644L72.7535 25.2873L72.6567 25.2228C72.0867 24.8463 71.4736 24.5667 70.839 24.3838C70.2044 24.201 69.5805 24.1149 68.9782 24.1149C68.1822 24.1149 67.5154 24.2225 67.0098 24.4376C66.5043 24.6527 66.1278 24.9324 65.8805 25.2873C65.6331 25.6423 65.5255 26.0403 65.5255 26.4813C65.5255 26.9868 65.6653 27.3848 65.9557 27.6859C66.2462 27.9978 66.6334 28.2452 67.1174 28.4173C67.6122 28.6002 68.15 28.7615 68.7416 28.9014C69.3224 29.0412 69.9247 29.2025 70.5163 29.3639C71.1079 29.536 71.6564 29.7511 72.1512 30.02C72.6567 30.2889 73.0762 30.6546 73.3881 31.1063C73.7001 31.5581 73.8614 32.1604 73.8614 32.8811C73.8614 33.5479 73.6786 34.1825 73.3021 34.7634C72.9364 35.3334 72.3663 35.8067 71.6134 36.1509C70.8605 36.4951 69.8924 36.6672 68.7308 36.6672" fill="var(--fill-0, #F8F8F2)"/>
</g>
</svg>
