<svg preserveAspectRatio="none" width="100%" height="100%" overflow="visible" style="display: block;" viewBox="0 0 38 38" fill="none" xmlns="http://www.w3.org/2000/svg">
<g id="Group">
<path id="Vector" d="M18.023 0.0240508C32.8033 -0.705057 42.8413 15.2884 35.4722 28.2435C28.5554 40.403 11.3379 41.2211 3.36279 29.6834C-5.0756 17.4763 3.31158 0.750111 18.023 0.0240508ZM13.5752 6.78415C10.1247 6.90485 7.19244 9.51891 6.77119 12.9554C6.79496 16.7033 6.50722 20.5293 6.69986 24.2773C6.88397 27.8521 9.44438 30.9746 13.1314 31.2471C16.8885 31.5251 20.976 31.0416 24.7672 31.2471C28.1714 30.9392 30.8738 28.2185 31.1957 24.8223C30.9903 21.053 31.4731 16.988 31.1957 13.2528C30.9177 9.50855 27.8031 6.9457 24.1613 6.76403C20.6895 6.59029 17.0616 6.88413 13.5746 6.78415H13.5752Z" fill="var(--fill-0, #F8F8F2)"/>
<path id="Vector_2" d="M13.0271 9.09848L24.8831 9.08811C27.0972 9.40938 28.8041 11.2065 29.0023 13.4359C28.7895 17.1144 29.29 21.1208 29.0023 24.7615C28.8194 27.0762 26.896 28.9557 24.588 29.1191C20.9126 28.8923 16.8879 29.4135 13.2533 29.1154C10.7368 28.9094 9.04995 26.8318 8.89633 24.3963C8.66589 20.749 9.01277 16.8047 8.964 13.1378C9.26698 11.0511 10.9337 9.38012 13.0265 9.09908L13.0271 9.09848ZM25.2708 11.0444C23.5218 11.3193 23.8059 14.1242 25.6756 13.9462C27.5977 13.7633 27.3368 10.7195 25.2708 11.0444ZM18.6326 12.7525C13.5282 13.05 10.8538 18.8725 13.9281 22.9607C16.6824 26.6239 22.5214 26.0856 24.6057 22.0109C26.8235 17.6746 23.5035 12.4691 18.6326 12.7525Z" fill="var(--fill-0, #F8F8F2)"/>
<path id="Vector_3" d="M18.6326 14.9447C21.5283 14.7015 23.7254 17.4588 22.9536 20.2381C22.0867 23.3605 17.984 24.2786 15.8442 21.8371C13.5855 19.2608 15.2468 15.2294 18.6332 14.9453L18.6326 14.9447Z" fill="var(--fill-0, #F8F8F2)"/>
</g>
</svg>
