<svg preserveAspectRatio="none" width="100%" height="100%" overflow="visible" style="display: block;" viewBox="0 0 40 35" fill="none" xmlns="http://www.w3.org/2000/svg">
<g id="logo setima">
<path id="Vector" d="M38.0925 0V1.6282L39.0328 0H38.0925Z" fill="var(--fill-0, #F8F8F2)"/>
<path id="Vector_2" d="M37.1142 3.33213L38.0545 1.69762V0H37.1142V3.33213Z" fill="var(--fill-0, #F8F8F2)"/>
<path id="Vector_3" d="M36.1296 5.02975L37.0447 3.43942V0H36.1296V5.02975Z" fill="var(--fill-0, #F8F8F2)"/>
<path id="Vector_4" d="M35.1517 6.73368L36.0415 5.18752V0H35.1517V6.73368Z" fill="var(--fill-0, #F8F8F2)"/>
<path id="Vector_5" d="M34.1672 8.4313L35.0317 6.92932V0H34.1672V8.4313Z" fill="var(--fill-0, #F8F8F2)"/>
<path id="Vector_6" d="M33.1888 10.1289L34.0281 8.67111V0H33.1888V10.1289Z" fill="var(--fill-0, #F8F8F2)"/>
<path id="Vector_7" d="M32.2042 11.8329C32.4188 11.4542 32.8101 10.7853 33.0183 10.4192V0H32.2042V11.8329Z" fill="var(--fill-0, #F8F8F2)"/>
<path id="Vector_8" d="M31.2263 13.5305C31.4346 13.1644 31.8132 12.5207 32.0152 12.161V0H31.2263V13.5305Z" fill="var(--fill-0, #F8F8F2)"/>
<path id="Vector_9" d="M30.2418 15.2281C30.4437 14.8747 30.8034 14.2499 31.0054 13.9028V0H30.2418V15.2281Z" fill="var(--fill-0, #F8F8F2)"/>
<path id="Vector_10" d="M29.2634 16.932C29.4591 16.5975 29.8125 15.9854 30.0018 15.6509V0H29.2634V16.932Z" fill="var(--fill-0, #F8F8F2)"/>
<path id="Vector_11" d="M28.2789 18.6296C28.4619 18.3141 28.8153 17.7083 28.992 17.3927V0H28.2789V18.6296Z" fill="var(--fill-0, #F8F8F2)"/>
<path id="Vector_12" d="M27.989 0H27.2948V20.3273C27.4715 20.0243 27.8186 19.4185 27.9953 19.1156V9.83862H27.989V0Z" fill="var(--fill-0, #F8F8F2)"/>
<path id="Vector_13" d="M26.979 0H26.3164V20.1001H26.5878V21.5579L27.0295 20.7943V9.83862H26.979V0Z" fill="var(--fill-0, #F8F8F2)"/>
<path id="Vector_14" d="M25.9756 0H25.3319V20.1001H25.5843V23.2997L26.045 22.4919V9.83862H25.9756V0Z" fill="var(--fill-0, #F8F8F2)"/>
<path id="Vector_15" d="M24.9656 0H24.3535V20.1001H24.5744V25.0415L25.0666 24.1958V9.83862H24.9656V0Z" fill="var(--fill-0, #F8F8F2)"/>
<path id="Vector_16" d="M23.9622 0H23.3689V20.1001H23.5709V26.7833L24.0821 25.8934V9.83862H23.9622V0Z" fill="var(--fill-0, #F8F8F2)"/>
<path id="Vector_17" d="M22.9527 0H22.391V20.1001H22.5614V28.5314L23.1042 27.5911V9.83862H22.9527V0Z" fill="var(--fill-0, #F8F8F2)"/>
<path id="Vector_18" d="M14.5403 12.344H15.2408V9.83862H15.0515V2.3855H14.9V0H14.5403V2.3855V9.84493V12.344Z" fill="var(--fill-0, #F8F8F2)"/>
<path id="Vector_19" d="M0 2.38561L0.448071 3.15554L1.31266 4.65752V2.38561H0.448071H0Z" fill="var(--fill-0, #F8F8F2)"/>
<path id="Vector_20" d="M1.45142 4.90365L2.29708 6.36145V2.38561H1.45142V4.90365Z" fill="var(--fill-0, #F8F8F2)"/>
<path id="Vector_21" d="M2.46114 6.64544L3.27524 8.05907V2.38561H2.46114V6.64544Z" fill="var(--fill-0, #F8F8F2)"/>
<path id="Vector_22" d="M3.46513 8.38724L4.26029 9.75669V2.38561H3.46513V8.38724Z" fill="var(--fill-0, #F8F8F2)"/>
<path id="Vector_23" d="M5.23792 2.38561H4.4743V9.83873H4.30391L4.48061 10.148L5.42724 11.7825V9.83873H5.23792V2.38561Z" fill="var(--fill-0, #F8F8F2)"/>
<path id="Vector_24" d="M6.22263 2.38561H5.47795V9.84504H5.49057V11.8961L5.74931 12.3441H6.40564V9.83873H6.22263V2.38561Z" fill="var(--fill-0, #F8F8F2)"/>
<path id="Vector_25" d="M7.2008 2.38561H6.48767V9.84504H6.49398V12.3441H7.39012V9.83873H7.2008V2.38561Z" fill="var(--fill-0, #F8F8F2)"/>
<path id="Vector_26" d="M8.1854 2.3855H7.85724V0H7.66791V2.3855H7.49121V9.84493H7.50383V12.344H8.36842V9.83862H8.1854V2.3855Z" fill="var(--fill-0, #F8F8F2)"/>
<path id="Vector_27" d="M9.16357 2.3855H8.86696V0H8.65239V2.3855H8.50093V9.84493H8.50724V12.344H9.3529V9.83862H9.16357V2.3855Z" fill="var(--fill-0, #F8F8F2)"/>
<path id="Vector_28" d="M10.1482 2.3855H9.8705V0H9.63069V2.3855H9.50447V9.84493H9.51709V12.344H10.3312V9.83862H10.1482V2.3855Z" fill="var(--fill-0, #F8F8F2)"/>
<path id="Vector_29" d="M11.1263 2.3855H10.8739V0H10.6152V2.3855H10.5142V9.84493H10.5205V12.344H11.3157V9.83862H11.1263V2.3855Z" fill="var(--fill-0, #F8F8F2)"/>
<path id="Vector_30" d="M12.2935 12.344V9.83862H12.1105V2.3855H11.8833V0H11.593V2.3855H11.5173V9.84493H11.5299V12.344H12.2935Z" fill="var(--fill-0, #F8F8F2)"/>
<path id="Vector_31" d="M12.5333 12.344H13.278V9.83862H13.0887V2.3855H12.8867V0H12.5775V2.3855H12.527V9.84493H12.5333V12.344Z" fill="var(--fill-0, #F8F8F2)"/>
<path id="Vector_32" d="M13.5432 12.344H14.2563V9.83862H14.0733V2.3855H13.8966V0H13.5558V2.3855H13.5306V9.84493H13.5432V12.344Z" fill="var(--fill-0, #F8F8F2)"/>
<path id="Vector_33" d="M16.2187 12.344V9.83862H16.0357V2.3855H15.9095V0H15.5182V12.344H15.9095H16.2187Z" fill="var(--fill-0, #F8F8F2)"/>
<path id="Vector_34" d="M17.2032 12.344V9.83862H17.0139V2.3855H16.9129V0H16.5027V12.344H16.9129H17.2032Z" fill="var(--fill-0, #F8F8F2)"/>
<path id="Vector_35" d="M12.306 23.7036V22.2079L11.8768 22.9589L12.306 23.7036Z" fill="var(--fill-0, #F8F8F2)"/>
<path id="Vector_36" d="M12.4957 24.0317L13.2908 25.4012V20.5103L12.4957 21.8797V24.0317Z" fill="var(--fill-0, #F8F8F2)"/>
<path id="Vector_37" d="M13.8966 19.4564C13.8588 19.5195 13.5306 20.0938 13.5054 20.138V25.7736L14.2753 27.0989V18.8064L14.2627 18.8317L13.903 19.4564H13.8966Z" fill="var(--fill-0, #F8F8F2)"/>
<path id="Vector_38" d="M20.1571 9.83862H19.9615V2.3855H19.9363V0H19.444V20.1001H19.545V28.6639H19.7217V33.4475L20.1635 32.6902V9.83862H20.1571Z" fill="var(--fill-0, #F8F8F2)"/>
<path id="Vector_39" d="M14.5089 18.3962V27.5217C14.6793 27.8183 15.0769 28.5125 15.2536 28.8091V17.1088C15.2536 17.1088 15.241 17.134 15.2347 17.134C15.0201 17.5 14.7172 18.0301 14.5089 18.3962Z" fill="var(--fill-0, #F8F8F2)"/>
<path id="Vector_40" d="M15.5182 16.648V28.6576H15.6949V29.5664L16.2376 30.5004V15.3985C16.2376 15.3985 16.225 15.4237 16.2187 15.4237C16.0104 15.7835 15.7201 16.2883 15.5182 16.6417" fill="var(--fill-0, #F8F8F2)"/>
<path id="Vector_41" d="M16.5027 14.9441V28.6576H16.7047V31.3144L17.2222 32.2043V13.7008C17.2222 13.7008 17.2096 13.7261 17.2032 13.7261C16.995 14.0921 16.711 14.578 16.5027 14.9378" fill="var(--fill-0, #F8F8F2)"/>
<path id="Vector_42" d="M17.9986 2.3855H17.9229V0H17.4811V12.344H17.9986C17.8408 12.6154 17.6326 12.9751 17.4811 13.2402V28.6576H17.7083V33.0563L18.2005 33.9019V9.83862H17.9986V2.3855Z" fill="var(--fill-0, #F8F8F2)"/>
<path id="Vector_43" d="M18.9768 2.3855H18.9263V0H18.4657V20.1001H18.5351V28.6639H18.7181V34.8044L18.8317 35L19.1788 34.3878V9.83862H18.9768V2.3855Z" fill="var(--fill-0, #F8F8F2)"/>
<path id="Vector_44" d="M20.9397 0H20.4286V20.1001H20.5485V28.6639H20.7315V31.7057L21.1417 30.9863V9.83862H20.9397V0Z" fill="var(--fill-0, #F8F8F2)"/>
<path id="Vector_45" d="M21.9492 0H21.4065V20.1001H21.5579V28.6639H21.7346V29.9639L22.1259 29.2887V9.83862H21.9492V0Z" fill="var(--fill-0, #F8F8F2)"/>
</g>
</svg>
